<?xml version="1.0" encoding="utf-8"?>
<!-- Uploaded to: SVG Repo, www.svgrepo.com, Generator: SVG Repo Mixer Tools -->
<svg width="800px" height="800px" viewBox="0 0 48 48" fill="none" xmlns="http://www.w3.org/2000/svg">
<g id="eye">
<g id="eye_2">
<path id="Combined Shape" fill-rule="evenodd" clip-rule="evenodd" d="M23.9882 27.9689C18.9819 27.9689 14.7635 24.2656 14.0836 19.3519C14.008 18.8048 14.3901 18.3 14.9372 18.2243C15.4842 18.1486 15.9891 18.5307 16.0648 19.0778C16.6082 23.0054 19.9838 25.9689 23.9882 25.9689C28.4059 25.9689 31.9882 22.3866 31.9882 17.9689C31.9882 17.1468 31.8644 16.3435 31.6029 15.5056C29.1588 14.5796 26.5281 13.9831 23.9992 13.9831C15.5668 13.9831 5.99921 20.6179 5.99921 23.9831C5.99921 24.4495 6.46522 25.355 7.33976 26.3989C7.69443 26.8222 7.63874 27.4529 7.21539 27.8076C6.79203 28.1623 6.16132 28.1066 5.80665 27.6832C4.65732 26.3113 3.99921 25.0327 3.99921 23.9831C3.99921 19.3242 14.5853 11.9831 23.9992 11.9831C26.1054 11.9831 28.2701 12.3504 30.3617 12.9729C30.0535 12.547 29.6923 12.1254 29.2734 11.7161C28.8783 11.3302 28.871 10.6971 29.2569 10.302C29.6429 9.90698 30.276 9.89962 30.671 10.2856C32.056 11.6386 32.8546 12.9924 33.2183 13.9952C39.215 16.5061 43.9992 20.8506 43.9992 23.9831C43.9992 28.7106 33.4566 35.9831 23.9992 35.9831C23.4469 35.9831 22.9992 35.5353 22.9992 34.9831C22.9992 34.4308 23.4469 33.9831 23.9992 33.9831C32.4762 33.9831 41.9992 27.4139 41.9992 23.9831C41.9992 21.949 38.5051 18.721 33.8786 16.4852C33.9513 16.973 33.9882 17.4684 33.9882 17.9689C33.9882 23.4911 29.5105 27.9689 23.9882 27.9689Z" fill="#000000"/>
</g>
</g>
</svg>