<?xml version="1.0" encoding="utf-8"?>
<!-- Uploaded to: SVG Repo, www.svgrepo.com, Generator: SVG Repo Mixer Tools -->
<svg width="800px" height="800px" viewBox="0 0 48 48" fill="none" xmlns="http://www.w3.org/2000/svg">
<g id="graph">
<g id="graph_2">
<path id="Combined Shape" fill-rule="evenodd" clip-rule="evenodd" d="M42.606 25.9951C43.3798 25.9951 44.0102 25.3538 43.9958 24.5755C43.7762 14.4162 35.581 6.22106 25.4198 5.99939C24.6414 5.98497 24 6.61531 24 7.38915V7.99555C14.0597 7.99555 6 16.0553 6 25.9956C6 35.9358 14.0597 43.9956 24 43.9956C26.8347 43.9956 29.5768 43.3393 32.0598 42.0957C32.5977 41.8246 33.1177 41.5304 33.6168 41.2145C34.1138 40.8985 34.5794 40.5722 35.0182 40.2307C38.248 37.7284 40.5515 34.1919 41.5066 30.1981C41.5908 29.8456 41.6618 29.505 41.7194 29.1719C41.8135 28.6276 41.4485 28.1102 40.9043 28.0162C40.3601 27.9221 39.8427 28.287 39.7486 28.8312C39.6985 29.1209 39.6362 29.4203 39.5614 29.7331C38.713 33.2808 36.6652 36.4247 33.7916 38.651C33.4025 38.9538 32.9885 39.2439 32.5454 39.5257C32.1034 39.8054 31.64 40.0676 31.162 40.3085C28.9576 41.4127 26.5219 41.9956 24 41.9956C15.1643 41.9956 8 34.8313 8 25.9956C8 17.1598 15.1643 9.99555 24 9.99555V24.6171C24 25.3774 24.6177 25.9951 25.378 25.9951H42.606ZM26 10.0222V8.0237C34.5917 8.52149 41.4739 15.4028 41.9715 23.9952H26V12.0451C28.9128 12.5173 31.6207 13.8839 33.7637 16.0269C34.1542 16.4174 34.7874 16.4174 35.1779 16.0269C35.5684 15.6363 35.5684 15.0032 35.1779 14.6126C32.6566 12.0913 29.4443 10.5106 26 10.0222Z" fill="#000000"/>
</g>
</g>
</svg>