<?xml version="1.0" encoding="utf-8"?>
<!-- Uploaded to: SVG Repo, www.svgrepo.com, Generator: SVG Repo Mixer Tools -->
<svg width="800px" height="800px" viewBox="0 0 48 48" fill="none" xmlns="http://www.w3.org/2000/svg">
<g id="trash">
<g id="trash_2">
<path id="Combined Shape" fill-rule="evenodd" clip-rule="evenodd" d="M30 9V10.0166H39C39.5523 10.0166 40 10.4643 40 11.0166C40 11.5689 39.5523 12.0166 39 12.0166H36V38.9994C36 40.6577 34.6583 41.9994 33 41.9994H15C13.3417 41.9994 12 40.6577 12 38.9994V15.0654C12 14.5131 12.4477 14.0654 13 14.0654C13.5523 14.0654 14 14.5131 14 15.0654V38.9994C14 39.5531 14.4463 39.9994 15 39.9994H33C33.5537 39.9994 34 39.5531 34 38.9994V12.0166H20V15C20 15.5523 19.5523 16 19 16C18.4477 16 18 15.5523 18 15V12.0166H9C8.44772 12.0166 8 11.5689 8 11.0166C8 10.4643 8.44772 10.0166 9 10.0166H18V9C18 7.34318 19.3423 6 21 6H27C28.6577 6 30 7.34318 30 9ZM28 9V10.0166H20V9C20 8.44744 20.4471 8 21 8H27C27.5529 8 28 8.44744 28 9ZM17.9902 34.9814V21.3154C17.9902 20.7631 18.4379 20.3154 18.9902 20.3154C19.5425 20.3154 19.9902 20.7631 19.9902 21.3154V34.9814C19.9902 35.5337 19.5425 35.9814 18.9902 35.9814C18.4379 35.9814 17.9902 35.5337 17.9902 34.9814ZM27.9902 21.3154V34.9814C27.9902 35.5337 28.4379 35.9814 28.9902 35.9814C29.5425 35.9814 29.9902 35.5337 29.9902 34.9814V21.3154C29.9902 20.7631 29.5425 20.3154 28.9902 20.3154C28.4379 20.3154 27.9902 20.7631 27.9902 21.3154ZM23 34.9814V21.3154C23 20.7631 23.4477 20.3154 24 20.3154C24.5523 20.3154 25 20.7631 25 21.3154V34.9814C25 35.5337 24.5523 35.9814 24 35.9814C23.4477 35.9814 23 35.5337 23 34.9814Z" fill="#000000"/>
</g>
</g>
</svg>